<svg width="240" height="177" viewBox="0 0 240 177" fill="none" xmlns="http://www.w3.org/2000/svg">
<path d="M14.1975 165.176C11.1629 173.521 4.59073 169.785 0.792538 166.25C0.40428 165.888 0.217199 165.373 0.133597 164.85C-0.0404645 163.759 -0.380092 163.753 1.69754 161.676C3.69754 159.676 4.8642 156.176 5.19754 154.676L8.19754 141.676C9.37036 129.166 16.6884 124.87 20.4424 124.215C20.6129 124.186 20.782 124.141 20.9414 124.073C35.142 118.08 39.0318 109.656 39.1975 106.176C39.0309 102.009 39.5975 92.7758 43.1975 89.1758C47.6975 84.6758 48.1975 81.1758 46.6975 75.6758C45.1975 70.1758 35.6975 65.6758 25.6975 54.1758C15.6975 42.6758 19.6975 25.6758 19.6975 21.1758C19.6975 16.6758 20.1975 17.6758 14.6975 9.17576C10.7785 3.11908 13.8407 0.711601 14.5571 0.25764C14.6501 0.198677 14.7495 0.159397 14.857 0.135467C15.8917 -0.0948069 21.7946 -0.951983 27.6975 7.67564C35.9434 19.7277 32.6975 23.6758 32.1975 33.6758C31.7975 41.6758 41.3642 52.1756 44.6975 54.6756C46.6975 56.1756 51.1708 59.3245 56.1975 62.6758C62.164 66.6536 63.6806 67.1701 73.0392 68.6506C73.1424 68.6669 73.25 68.6756 73.3544 68.6756H85.1975C88.8642 68.3423 97.8975 67.8756 104.698 68.6756C113.198 69.6756 139.198 75.6756 145.698 74.1756C150.898 72.9756 155.864 73.009 157.698 73.1756C164.498 74.7756 173.864 75.1756 177.698 75.1756C181.198 75.1756 188.998 75.6756 192.198 73.6756C195.398 71.6756 198.531 71.1756 199.698 71.1756C212.198 71.6756 212.698 66.6758 217.698 63.1758C221.698 60.3758 221.031 63.6758 220.198 65.6758C218.864 68.0091 217.298 73.7758 221.698 78.1758C225.531 82.0093 226.607 84.35 226.71 85.33C226.734 85.5591 226.708 85.793 226.739 86.0212C226.988 87.8622 227.95 91.6784 230.198 94.6758C232.535 97.7923 228.106 102.11 225.41 104.027C225.269 104.127 225.116 104.206 224.952 104.261C222.46 105.09 216.611 106.222 211.198 104.676C204.198 102.676 202.198 104.676 200.698 105.676C199.198 106.676 198.698 109.676 200.198 113.176C201.398 115.976 201.698 120.676 201.698 122.676C201.531 125.509 202.498 132.176 207.698 136.176C212.898 140.176 217.198 145.176 218.698 147.176C225.198 156.676 230.198 159.676 235.698 163.176C239.799 165.786 239.295 168.599 238.398 169.913C238.275 170.094 238.162 170.283 238.043 170.467C237.463 171.366 235.635 172.818 231.698 173.176C227.298 173.576 225.198 172.009 224.698 171.176C221.198 166.342 212.498 155.776 205.698 152.176C198.898 148.576 191.864 142.342 189.198 139.676C186.364 137.009 177.398 131.576 164.198 131.176C147.698 130.676 142.698 155.676 140.698 159.676C138.698 163.676 139.698 163.676 143.698 167.176C146.898 169.976 145.031 172.009 143.698 172.676C142.698 173.176 139.298 173.576 133.698 171.176C128.098 168.776 128.364 162.509 129.198 159.676C134.398 144.076 134.364 134.842 133.698 132.176C133.364 130.509 131.998 127.676 129.198 129.676C126.398 131.676 117.364 131.842 113.198 131.676C98.3975 131.676 92.6975 133.342 91.6975 134.176C87.8642 137.176 78.9975 144.576 74.1975 150.176C69.3975 155.776 81.5309 164.842 88.1975 168.676C91.3642 170.342 95.9975 174.076 89.1975 175.676C82.5436 177.241 76.9429 174.785 74.8315 173.274C74.7404 173.209 74.662 173.138 74.5847 173.057C70.6047 168.884 60.9898 159.808 56.6975 156.176C55.6975 155.176 54.4975 151.776 57.6975 146.176C60.2365 141.733 59.1662 136.366 57.7833 132.923C57.3055 131.734 55.8005 131.506 54.742 132.229C47.8552 136.932 35.3866 139.06 28.9234 139.618C28.4537 139.658 27.9956 139.872 27.6588 140.202C7.88284 159.579 18.162 154.273 14.1975 165.176Z" fill="black"/>
</svg>
