<svg width="25" height="26" viewBox="0 0 25 26" fill="none" xmlns="http://www.w3.org/2000/svg">
<path d="M12.35 9.42549C13.95 9.50049 14.3625 10.863 14.3875 11.5005H16.625C16.525 9.02549 14.7625 7.51299 12.3125 7.51299C9.55 7.51299 7.5 9.25049 7.5 13.1755C7.5 15.6005 8.6625 18.4755 12.3 18.4755C15.075 18.4755 16.5625 16.413 16.6 14.788H14.3625C14.325 15.5255 13.8 16.513 12.325 16.588C10.6875 16.538 10 15.263 10 13.1755C10 9.56299 11.6 9.45049 12.35 9.42549ZM12.5 0.500488C5.6 0.500488 0 6.10049 0 13.0005C0 19.9005 5.6 25.5005 12.5 25.5005C19.4 25.5005 25 19.9005 25 13.0005C25 6.10049 19.4 0.500488 12.5 0.500488ZM12.5 23.0005C6.9875 23.0005 2.5 18.513 2.5 13.0005C2.5 7.48799 6.9875 3.00049 12.5 3.00049C18.0125 3.00049 22.5 7.48799 22.5 13.0005C22.5 18.513 18.0125 23.0005 12.5 23.0005Z" fill="white"/>
</svg>
