<svg width="41" height="40" viewBox="0 0 41 40" fill="none" xmlns="http://www.w3.org/2000/svg">
<path d="M32.6167 8.88341C30.4 7.85008 28 7.10008 25.5 6.66675C25.456 6.66737 25.4141 6.68535 25.3833 6.71675C25.0833 7.26675 24.7333 7.98341 24.5 8.53341C21.8483 8.13367 19.1517 8.13367 16.5 8.53341C16.2667 7.96675 15.9167 7.26675 15.6 6.71675C15.5833 6.68342 15.5333 6.66675 15.4833 6.66675C12.9833 7.10008 10.6 7.85008 8.36666 8.88341C8.34999 8.88341 8.33333 8.90008 8.31666 8.91675C3.78333 15.7001 2.53333 22.3001 3.14999 28.8334C3.14999 28.8667 3.16666 28.9001 3.19999 28.9167C6.19999 31.1167 9.08333 32.4501 11.9333 33.3334C11.9833 33.3501 12.0333 33.3334 12.05 33.3001C12.7167 32.3834 13.3167 31.4167 13.8333 30.4001C13.8667 30.3334 13.8333 30.2667 13.7667 30.2501C12.8167 29.8834 11.9167 29.4501 11.0333 28.9501C10.9667 28.9167 10.9667 28.8167 11.0167 28.7667C11.2 28.6334 11.3833 28.4834 11.5667 28.3501C11.6 28.3167 11.65 28.3167 11.6833 28.3334C17.4167 30.9501 23.6 30.9501 29.2667 28.3334C29.3 28.3167 29.35 28.3167 29.3833 28.3501C29.5667 28.5001 29.75 28.6334 29.9333 28.7834C30 28.8334 30 28.9334 29.9167 28.9667C29.05 29.4834 28.1333 29.9001 27.1833 30.2667C27.1167 30.2834 27.1 30.3667 27.1167 30.4167C27.65 31.4334 28.25 32.4001 28.9 33.3167C28.95 33.3334 29 33.3501 29.05 33.3334C31.9167 32.4501 34.8 31.1167 37.8 28.9167C37.8333 28.9001 37.85 28.8667 37.85 28.8334C38.5833 21.2834 36.6333 14.7334 32.6833 8.91675C32.6667 8.90008 32.65 8.88341 32.6167 8.88341ZM14.7 24.8501C12.9833 24.8501 11.55 23.2667 11.55 21.3167C11.55 19.3667 12.95 17.7834 14.7 17.7834C16.4667 17.7834 17.8667 19.3834 17.85 21.3167C17.85 23.2667 16.45 24.8501 14.7 24.8501ZM26.3167 24.8501C24.6 24.8501 23.1667 23.2667 23.1667 21.3167C23.1667 19.3667 24.5667 17.7834 26.3167 17.7834C28.0833 17.7834 29.4833 19.3834 29.4667 21.3167C29.4667 23.2667 28.0833 24.8501 26.3167 24.8501Z" fill="black"/>
</svg>
