<svg width="1489" height="536" viewBox="0 0 1489 536" fill="none" xmlns="http://www.w3.org/2000/svg">
<circle cx="822" cy="484" r="5" fill="#FFFB8D"/>
<circle cx="837" cy="484" r="5" fill="#FFFB8D"/>
<circle cx="852" cy="484" r="5" fill="#FFFB8D"/>
<circle cx="867" cy="484" r="5" fill="#FFFB8D"/>
<circle cx="882" cy="484" r="5" fill="#FFFB8D"/>
<circle cx="897" cy="484" r="5" fill="#FFFB8D"/>
<circle cx="822" cy="499" r="5" fill="#FFFB8D"/>
<circle cx="837" cy="499" r="5" fill="#FFFB8D"/>
<circle cx="852" cy="499" r="5" fill="#FFFB8D"/>
<circle cx="867" cy="499" r="5" fill="#FFFB8D"/>
<circle cx="882" cy="499" r="5" fill="#FFFB8D"/>
<circle cx="897" cy="499" r="5" fill="#FFFB8D"/>
<circle cx="1409" cy="5" r="5" fill="#9EDFFF"/>
<circle cx="1424" cy="5" r="5" fill="#9EDFFF"/>
<circle cx="1439" cy="5" r="5" fill="#9EDFFF"/>
<circle cx="1454" cy="5" r="5" fill="#9EDFFF"/>
<circle cx="1469" cy="5" r="5" fill="#9EDFFF"/>
<circle cx="1484" cy="5" r="5" fill="#9EDFFF"/>
<circle cx="1409" cy="20" r="5" fill="#9EDFFF"/>
<circle cx="1424" cy="20" r="5" fill="#9EDFFF"/>
<circle cx="1439" cy="20" r="5" fill="#9EDFFF"/>
<circle cx="1454" cy="20" r="5" fill="#9EDFFF"/>
<circle cx="1469" cy="20" r="5" fill="#9EDFFF"/>
<circle cx="1484" cy="20" r="5" fill="#9EDFFF"/>
<circle cx="732" cy="484" r="5" fill="#FFFB8D"/>
<circle cx="747" cy="484" r="5" fill="#FFFB8D"/>
<circle cx="762" cy="484" r="5" fill="#FFFB8D"/>
<circle cx="777" cy="484" r="5" fill="#FFFB8D"/>
<circle cx="792" cy="484" r="5" fill="#FFFB8D"/>
<circle cx="807" cy="484" r="5" fill="#FFFB8D"/>
<circle cx="732" cy="499" r="5" fill="#FFFB8D"/>
<circle cx="747" cy="499" r="5" fill="#FFFB8D"/>
<circle cx="762" cy="499" r="5" fill="#FFFB8D"/>
<circle cx="777" cy="499" r="5" fill="#FFFB8D"/>
<circle cx="792" cy="499" r="5" fill="#FFFB8D"/>
<circle cx="807" cy="499" r="5" fill="#FFFB8D"/>
<circle cx="1319" cy="5" r="5" fill="#9EDFFF"/>
<circle cx="1334" cy="5" r="5" fill="#9EDFFF"/>
<circle cx="1349" cy="5" r="5" fill="#9EDFFF"/>
<circle cx="1364" cy="5" r="5" fill="#9EDFFF"/>
<circle cx="1379" cy="5" r="5" fill="#9EDFFF"/>
<circle cx="1394" cy="5" r="5" fill="#9EDFFF"/>
<circle cx="1319" cy="20" r="5" fill="#9EDFFF"/>
<circle cx="1334" cy="20" r="5" fill="#9EDFFF"/>
<circle cx="1349" cy="20" r="5" fill="#9EDFFF"/>
<circle cx="1364" cy="20" r="5" fill="#9EDFFF"/>
<circle cx="1379" cy="20" r="5" fill="#9EDFFF"/>
<circle cx="1394" cy="20" r="5" fill="#9EDFFF"/>
<circle cx="747" cy="516" r="5" fill="#FFFB8D"/>
<circle cx="762" cy="516" r="5" fill="#FFFB8D"/>
<circle cx="777" cy="516" r="5" fill="#FFFB8D"/>
<circle cx="792" cy="516" r="5" fill="#FFFB8D"/>
<circle cx="807" cy="516" r="5" fill="#FFFB8D"/>
<circle cx="822" cy="516" r="5" fill="#FFFB8D"/>
<circle cx="747" cy="531" r="5" fill="#FFFB8D"/>
<circle cx="762" cy="531" r="5" fill="#FFFB8D"/>
<circle cx="777" cy="531" r="5" fill="#FFFB8D"/>
<circle cx="792" cy="531" r="5" fill="#FFFB8D"/>
<circle cx="807" cy="531" r="5" fill="#FFFB8D"/>
<circle cx="822" cy="531" r="5" fill="#FFFB8D"/>
<circle cx="1334" cy="37" r="5" fill="#9EDFFF"/>
<circle cx="1349" cy="37" r="5" fill="#9EDFFF"/>
<circle cx="1364" cy="37" r="5" fill="#9EDFFF"/>
<circle cx="1379" cy="37" r="5" fill="#9EDFFF"/>
<circle cx="1394" cy="37" r="5" fill="#9EDFFF"/>
<circle cx="1409" cy="37" r="5" fill="#9EDFFF"/>
<circle cx="1334" cy="52" r="5" fill="#9EDFFF"/>
<circle cx="1349" cy="52" r="5" fill="#9EDFFF"/>
<circle cx="1364" cy="52" r="5" fill="#9EDFFF"/>
<circle cx="1379" cy="52" r="5" fill="#9EDFFF"/>
<circle cx="1394" cy="52" r="5" fill="#9EDFFF"/>
<circle cx="1409" cy="52" r="5" fill="#9EDFFF"/>
<circle cx="115" cy="484" r="5" fill="#FFFB8D"/>
<circle cx="130" cy="484" r="5" fill="#FFFB8D"/>
<circle cx="145" cy="484" r="5" fill="#FFFB8D"/>
<circle cx="160" cy="484" r="5" fill="#FFFB8D"/>
<circle cx="175" cy="484" r="5" fill="#FFFB8D"/>
<circle cx="190" cy="484" r="5" fill="#FFFB8D"/>
<circle cx="115" cy="499" r="5" fill="#FFFB8D"/>
<circle cx="130" cy="499" r="5" fill="#FFFB8D"/>
<circle cx="145" cy="499" r="5" fill="#FFFB8D"/>
<circle cx="160" cy="499" r="5" fill="#FFFB8D"/>
<circle cx="175" cy="499" r="5" fill="#FFFB8D"/>
<circle cx="190" cy="499" r="5" fill="#FFFB8D"/>
<circle cx="5" cy="166" r="5" fill="#FFFB8D"/>
<circle cx="20" cy="166" r="5" fill="#FFFB8D"/>
<circle cx="35" cy="166" r="5" fill="#FFFB8D"/>
<circle cx="50" cy="166" r="5" fill="#FFFB8D"/>
<circle cx="65" cy="166" r="5" fill="#FFFB8D"/>
<circle cx="80" cy="166" r="5" fill="#FFFB8D"/>
<circle cx="5" cy="181" r="5" fill="#FFFB8D"/>
<circle cx="20" cy="181" r="5" fill="#FFFB8D"/>
<circle cx="35" cy="181" r="5" fill="#FFFB8D"/>
<circle cx="50" cy="181" r="5" fill="#FFFB8D"/>
<circle cx="65" cy="181" r="5" fill="#FFFB8D"/>
<circle cx="80" cy="181" r="5" fill="#FFFB8D"/>
<circle cx="95" cy="166" r="5" fill="#FFFB8D"/>
<circle cx="110" cy="166" r="5" fill="#FFFB8D"/>
<circle cx="125" cy="166" r="5" fill="#FFFB8D"/>
<circle cx="140" cy="166" r="5" fill="#FFFB8D"/>
<circle cx="155" cy="166" r="5" fill="#FFFB8D"/>
<circle cx="170" cy="166" r="5" fill="#FFFB8D"/>
<circle cx="95" cy="181" r="5" fill="#FFFB8D"/>
<circle cx="110" cy="181" r="5" fill="#FFFB8D"/>
<circle cx="125" cy="181" r="5" fill="#FFFB8D"/>
<circle cx="140" cy="181" r="5" fill="#FFFB8D"/>
<circle cx="155" cy="181" r="5" fill="#FFFB8D"/>
<circle cx="170" cy="181" r="5" fill="#FFFB8D"/>
<circle cx="20" cy="198" r="5" fill="#FFFB8D"/>
<circle cx="35" cy="198" r="5" fill="#FFFB8D"/>
<circle cx="50" cy="198" r="5" fill="#FFFB8D"/>
<circle cx="65" cy="198" r="5" fill="#FFFB8D"/>
<circle cx="80" cy="198" r="5" fill="#FFFB8D"/>
<circle cx="95" cy="198" r="5" fill="#FFFB8D"/>
<circle cx="20" cy="213" r="5" fill="#FFFB8D"/>
<circle cx="35" cy="213" r="5" fill="#FFFB8D"/>
<circle cx="50" cy="213" r="5" fill="#FFFB8D"/>
<circle cx="65" cy="213" r="5" fill="#FFFB8D"/>
<circle cx="80" cy="213" r="5" fill="#FFFB8D"/>
<circle cx="95" cy="213" r="5" fill="#FFFB8D"/>
</svg>
