<svg width="1440" height="426" viewBox="0 0 1440 426" fill="none" xmlns="http://www.w3.org/2000/svg">
<circle cx="5" cy="5" r="5" transform="matrix(-1 0 0 1 718.735 318)" fill="#FFFB8D"/>
<circle cx="5" cy="5" r="5" transform="matrix(-1 0 0 1 703.735 318)" fill="#FFFB8D"/>
<circle cx="5" cy="5" r="5" transform="matrix(-1 0 0 1 688.735 318)" fill="#FFFB8D"/>
<circle cx="5" cy="5" r="5" transform="matrix(-1 0 0 1 718.735 333)" fill="#FFFB8D"/>
<circle cx="5" cy="5" r="5" transform="matrix(-1 0 0 1 703.735 333)" fill="#FFFB8D"/>
<circle cx="5" cy="5" r="5" transform="matrix(-1 0 0 1 688.735 333)" fill="#FFFB8D"/>
<circle cx="5" cy="5" r="5" transform="matrix(-1 0 0 1 718.735 348)" fill="#FFFB8D"/>
<circle cx="5" cy="5" r="5" transform="matrix(-1 0 0 1 703.735 348)" fill="#FFFB8D"/>
<circle cx="5" cy="5" r="5" transform="matrix(-1 0 0 1 688.735 348)" fill="#FFFB8D"/>
<circle cx="5" cy="5" r="5" transform="matrix(-1 0 0 1 718.735 363)" fill="#FFFB8D"/>
<circle cx="5" cy="5" r="5" transform="matrix(-1 0 0 1 703.735 363)" fill="#FFFB8D"/>
<circle cx="5" cy="5" r="5" transform="matrix(-1 0 0 1 688.735 363)" fill="#FFFB8D"/>
<circle cx="5" cy="5" r="5" transform="matrix(-1 0 0 1 770.915 318)" fill="#FFFB8D"/>
<circle cx="5" cy="5" r="5" transform="matrix(-1 0 0 1 755.915 318)" fill="#FFFB8D"/>
<circle cx="5" cy="5" r="5" transform="matrix(-1 0 0 1 740.915 318)" fill="#FFFB8D"/>
<circle cx="5" cy="5" r="5" transform="matrix(-1 0 0 1 770.915 333)" fill="#FFFB8D"/>
<circle cx="5" cy="5" r="5" transform="matrix(-1 0 0 1 755.915 333)" fill="#FFFB8D"/>
<circle cx="5" cy="5" r="5" transform="matrix(-1 0 0 1 740.915 333)" fill="#FFFB8D"/>
<circle cx="5" cy="5" r="5" transform="matrix(-1 0 0 1 770.915 348)" fill="#FFFB8D"/>
<circle cx="5" cy="5" r="5" transform="matrix(-1 0 0 1 755.915 348)" fill="#FFFB8D"/>
<circle cx="5" cy="5" r="5" transform="matrix(-1 0 0 1 740.915 348)" fill="#FFFB8D"/>
<circle cx="5" cy="5" r="5" transform="matrix(-1 0 0 1 770.915 363)" fill="#FFFB8D"/>
<circle cx="5" cy="5" r="5" transform="matrix(-1 0 0 1 755.915 363)" fill="#FFFB8D"/>
<circle cx="5" cy="5" r="5" transform="matrix(-1 0 0 1 740.915 363)" fill="#FFFB8D"/>
<circle cx="5" cy="5" r="5" transform="matrix(-1 0 0 1 762.218 350)" fill="#FFFB8D"/>
<circle cx="5" cy="5" r="5" transform="matrix(-1 0 0 1 747.218 350)" fill="#FFFB8D"/>
<circle cx="5" cy="5" r="5" transform="matrix(-1 0 0 1 732.218 350)" fill="#FFFB8D"/>
<circle cx="5" cy="5" r="5" transform="matrix(-1 0 0 1 762.218 365)" fill="#FFFB8D"/>
<circle cx="5" cy="5" r="5" transform="matrix(-1 0 0 1 747.218 365)" fill="#FFFB8D"/>
<circle cx="5" cy="5" r="5" transform="matrix(-1 0 0 1 732.218 365)" fill="#FFFB8D"/>
<circle cx="5" cy="5" r="5" transform="matrix(-1 0 0 1 762.218 380)" fill="#FFFB8D"/>
<circle cx="5" cy="5" r="5" transform="matrix(-1 0 0 1 747.218 380)" fill="#FFFB8D"/>
<circle cx="5" cy="5" r="5" transform="matrix(-1 0 0 1 732.218 380)" fill="#FFFB8D"/>
<circle cx="5" cy="5" r="5" transform="matrix(-1 0 0 1 762.218 395)" fill="#FFFB8D"/>
<circle cx="5" cy="5" r="5" transform="matrix(-1 0 0 1 747.218 395)" fill="#FFFB8D"/>
<circle cx="5" cy="5" r="5" transform="matrix(-1 0 0 1 732.218 395)" fill="#FFFB8D"/>
<circle cx="5" cy="5" r="5" transform="matrix(-1 0 0 1 378.408 236)" fill="#9EDFFF"/>
<circle cx="5" cy="5" r="5" transform="matrix(-1 0 0 1 363.408 236)" fill="#9EDFFF"/>
<circle cx="5" cy="5" r="5" transform="matrix(-1 0 0 1 348.408 236)" fill="#9EDFFF"/>
<circle cx="5" cy="5" r="5" transform="matrix(-1 0 0 1 378.408 251)" fill="#9EDFFF"/>
<circle cx="5" cy="5" r="5" transform="matrix(-1 0 0 1 363.408 251)" fill="#9EDFFF"/>
<circle cx="5" cy="5" r="5" transform="matrix(-1 0 0 1 348.408 251)" fill="#9EDFFF"/>
<circle cx="5" cy="5" r="5" transform="matrix(-1 0 0 1 378.408 266)" fill="#9EDFFF"/>
<circle cx="5" cy="5" r="5" transform="matrix(-1 0 0 1 363.408 266)" fill="#9EDFFF"/>
<circle cx="5" cy="5" r="5" transform="matrix(-1 0 0 1 348.408 266)" fill="#9EDFFF"/>
<circle cx="5" cy="5" r="5" transform="matrix(-1 0 0 1 378.408 281)" fill="#9EDFFF"/>
<circle cx="5" cy="5" r="5" transform="matrix(-1 0 0 1 363.408 281)" fill="#9EDFFF"/>
<circle cx="5" cy="5" r="5" transform="matrix(-1 0 0 1 348.408 281)" fill="#9EDFFF"/>
<circle cx="5" cy="5" r="5" transform="matrix(-1 0 0 1 441.978 236)" fill="#9EDFFF"/>
<circle cx="5" cy="5" r="5" transform="matrix(-1 0 0 1 426.978 236)" fill="#9EDFFF"/>
<circle cx="5" cy="5" r="5" transform="matrix(-1 0 0 1 411.978 236)" fill="#9EDFFF"/>
<circle cx="5" cy="5" r="5" transform="matrix(-1 0 0 1 441.978 251)" fill="#9EDFFF"/>
<circle cx="5" cy="5" r="5" transform="matrix(-1 0 0 1 426.978 251)" fill="#9EDFFF"/>
<circle cx="5" cy="5" r="5" transform="matrix(-1 0 0 1 411.978 251)" fill="#9EDFFF"/>
<circle cx="5" cy="5" r="5" transform="matrix(-1 0 0 1 441.978 266)" fill="#9EDFFF"/>
<circle cx="5" cy="5" r="5" transform="matrix(-1 0 0 1 426.978 266)" fill="#9EDFFF"/>
<circle cx="5" cy="5" r="5" transform="matrix(-1 0 0 1 411.978 266)" fill="#9EDFFF"/>
<circle cx="5" cy="5" r="5" transform="matrix(-1 0 0 1 441.978 281)" fill="#9EDFFF"/>
<circle cx="5" cy="5" r="5" transform="matrix(-1 0 0 1 426.978 281)" fill="#9EDFFF"/>
<circle cx="5" cy="5" r="5" transform="matrix(-1 0 0 1 411.978 281)" fill="#9EDFFF"/>
<circle cx="5" cy="5" r="5" transform="matrix(-1 0 0 1 424.289 266)" fill="#9EDFFF"/>
<circle cx="5" cy="5" r="5" transform="matrix(-1 0 0 1 409.289 266)" fill="#9EDFFF"/>
<circle cx="5" cy="5" r="5" transform="matrix(-1 0 0 1 394.289 266)" fill="#9EDFFF"/>
<circle cx="5" cy="5" r="5" transform="matrix(-1 0 0 1 424.289 281)" fill="#9EDFFF"/>
<circle cx="5" cy="5" r="5" transform="matrix(-1 0 0 1 409.289 281)" fill="#9EDFFF"/>
<circle cx="5" cy="5" r="5" transform="matrix(-1 0 0 1 394.289 281)" fill="#9EDFFF"/>
<circle cx="5" cy="5" r="5" transform="matrix(-1 0 0 1 424.289 296)" fill="#9EDFFF"/>
<circle cx="5" cy="5" r="5" transform="matrix(-1 0 0 1 409.289 296)" fill="#9EDFFF"/>
<circle cx="5" cy="5" r="5" transform="matrix(-1 0 0 1 394.289 296)" fill="#9EDFFF"/>
<circle cx="5" cy="5" r="5" transform="matrix(-1 0 0 1 424.289 311)" fill="#9EDFFF"/>
<circle cx="5" cy="5" r="5" transform="matrix(-1 0 0 1 409.289 311)" fill="#9EDFFF"/>
<circle cx="5" cy="5" r="5" transform="matrix(-1 0 0 1 394.289 311)" fill="#9EDFFF"/>
<circle cx="5" cy="5" r="5" transform="matrix(-1 0 0 1 1118.2 293)" fill="#FFFB8D"/>
<circle cx="5" cy="5" r="5" transform="matrix(-1 0 0 1 1103.2 293)" fill="#FFFB8D"/>
<circle cx="5" cy="5" r="5" transform="matrix(-1 0 0 1 1088.2 293)" fill="#FFFB8D"/>
<circle cx="5" cy="5" r="5" transform="matrix(-1 0 0 1 1118.2 308)" fill="#FFFB8D"/>
<circle cx="5" cy="5" r="5" transform="matrix(-1 0 0 1 1103.2 308)" fill="#FFFB8D"/>
<circle cx="5" cy="5" r="5" transform="matrix(-1 0 0 1 1088.2 308)" fill="#FFFB8D"/>
<circle cx="5" cy="5" r="5" transform="matrix(-1 0 0 1 1118.2 323)" fill="#FFFB8D"/>
<circle cx="5" cy="5" r="5" transform="matrix(-1 0 0 1 1103.2 323)" fill="#FFFB8D"/>
<circle cx="5" cy="5" r="5" transform="matrix(-1 0 0 1 1088.2 323)" fill="#FFFB8D"/>
<circle cx="5" cy="5" r="5" transform="matrix(-1 0 0 1 1118.2 338)" fill="#FFFB8D"/>
<circle cx="5" cy="5" r="5" transform="matrix(-1 0 0 1 1103.2 338)" fill="#FFFB8D"/>
<circle cx="5" cy="5" r="5" transform="matrix(-1 0 0 1 1088.2 338)" fill="#FFFB8D"/>
<circle cx="5" cy="5" r="5" transform="matrix(-1 0 0 1 1192.41 0)" fill="#FFFB8D"/>
<circle cx="5" cy="5" r="5" transform="matrix(-1 0 0 1 1177.41 0)" fill="#FFFB8D"/>
<circle cx="5" cy="5" r="5" transform="matrix(-1 0 0 1 1162.41 0)" fill="#FFFB8D"/>
<circle cx="5" cy="5" r="5" transform="matrix(-1 0 0 1 1192.41 15)" fill="#FFFB8D"/>
<circle cx="5" cy="5" r="5" transform="matrix(-1 0 0 1 1177.41 15)" fill="#FFFB8D"/>
<circle cx="5" cy="5" r="5" transform="matrix(-1 0 0 1 1162.41 15)" fill="#FFFB8D"/>
<circle cx="5" cy="5" r="5" transform="matrix(-1 0 0 1 1192.41 30)" fill="#FFFB8D"/>
<circle cx="5" cy="5" r="5" transform="matrix(-1 0 0 1 1177.41 30)" fill="#FFFB8D"/>
<circle cx="5" cy="5" r="5" transform="matrix(-1 0 0 1 1162.41 30)" fill="#FFFB8D"/>
<circle cx="5" cy="5" r="5" transform="matrix(-1 0 0 1 1192.41 45)" fill="#FFFB8D"/>
<circle cx="5" cy="5" r="5" transform="matrix(-1 0 0 1 1177.41 45)" fill="#FFFB8D"/>
<circle cx="5" cy="5" r="5" transform="matrix(-1 0 0 1 1162.41 45)" fill="#FFFB8D"/>
<circle cx="5" cy="5" r="5" transform="matrix(-1 0 0 1 1138.58 2)" fill="#FFFB8D"/>
<circle cx="5" cy="5" r="5" transform="matrix(-1 0 0 1 1123.58 2)" fill="#FFFB8D"/>
<circle cx="5" cy="5" r="5" transform="matrix(-1 0 0 1 1108.58 2)" fill="#FFFB8D"/>
<circle cx="5" cy="5" r="5" transform="matrix(-1 0 0 1 1138.58 17)" fill="#FFFB8D"/>
<circle cx="5" cy="5" r="5" transform="matrix(-1 0 0 1 1123.58 17)" fill="#FFFB8D"/>
<circle cx="5" cy="5" r="5" transform="matrix(-1 0 0 1 1108.58 17)" fill="#FFFB8D"/>
<circle cx="5" cy="5" r="5" transform="matrix(-1 0 0 1 1138.58 32)" fill="#FFFB8D"/>
<circle cx="5" cy="5" r="5" transform="matrix(-1 0 0 1 1123.58 32)" fill="#FFFB8D"/>
<circle cx="5" cy="5" r="5" transform="matrix(-1 0 0 1 1108.58 32)" fill="#FFFB8D"/>
<circle cx="5" cy="5" r="5" transform="matrix(-1 0 0 1 1138.58 47)" fill="#FFFB8D"/>
<circle cx="5" cy="5" r="5" transform="matrix(-1 0 0 1 1123.58 47)" fill="#FFFB8D"/>
<circle cx="5" cy="5" r="5" transform="matrix(-1 0 0 1 1108.58 47)" fill="#FFFB8D"/>
<circle cx="5" cy="5" r="5" transform="matrix(-1 0 0 1 1183.71 32)" fill="#FFFB8D"/>
<circle cx="5" cy="5" r="5" transform="matrix(-1 0 0 1 1168.71 32)" fill="#FFFB8D"/>
<circle cx="5" cy="5" r="5" transform="matrix(-1 0 0 1 1153.71 32)" fill="#FFFB8D"/>
<circle cx="5" cy="5" r="5" transform="matrix(-1 0 0 1 1183.71 47)" fill="#FFFB8D"/>
<circle cx="5" cy="5" r="5" transform="matrix(-1 0 0 1 1168.71 47)" fill="#FFFB8D"/>
<circle cx="5" cy="5" r="5" transform="matrix(-1 0 0 1 1153.71 47)" fill="#FFFB8D"/>
<circle cx="5" cy="5" r="5" transform="matrix(-1 0 0 1 1183.71 62)" fill="#FFFB8D"/>
<circle cx="5" cy="5" r="5" transform="matrix(-1 0 0 1 1168.71 62)" fill="#FFFB8D"/>
<circle cx="5" cy="5" r="5" transform="matrix(-1 0 0 1 1153.71 62)" fill="#FFFB8D"/>
<circle cx="5" cy="5" r="5" transform="matrix(-1 0 0 1 1183.71 77)" fill="#FFFB8D"/>
<circle cx="5" cy="5" r="5" transform="matrix(-1 0 0 1 1168.71 77)" fill="#FFFB8D"/>
<circle cx="5" cy="5" r="5" transform="matrix(-1 0 0 1 1153.71 77)" fill="#FFFB8D"/>
<circle cx="5" cy="5" r="5" transform="matrix(1 0 0 -1 1390.72 118)" fill="#FFFB8D"/>
<circle cx="5" cy="5" r="5" transform="matrix(1 0 0 -1 1405.72 118)" fill="#FFFB8D"/>
<circle cx="5" cy="5" r="5" transform="matrix(1 0 0 -1 1420.72 118)" fill="#FFFB8D"/>
<circle cx="5" cy="5" r="5" transform="matrix(1 0 0 -1 1390.72 103)" fill="#FFFB8D"/>
<circle cx="5" cy="5" r="5" transform="matrix(1 0 0 -1 1405.72 103)" fill="#FFFB8D"/>
<circle cx="5" cy="5" r="5" transform="matrix(1 0 0 -1 1420.72 103)" fill="#FFFB8D"/>
<circle cx="5" cy="5" r="5" transform="matrix(1 0 0 -1 1390.72 88)" fill="#FFFB8D"/>
<circle cx="5" cy="5" r="5" transform="matrix(1 0 0 -1 1405.72 88)" fill="#FFFB8D"/>
<circle cx="5" cy="5" r="5" transform="matrix(1 0 0 -1 1420.72 88)" fill="#FFFB8D"/>
<circle cx="5" cy="5" r="5" transform="matrix(1 0 0 -1 1390.72 73)" fill="#FFFB8D"/>
<circle cx="5" cy="5" r="5" transform="matrix(1 0 0 -1 1405.72 73)" fill="#FFFB8D"/>
<circle cx="5" cy="5" r="5" transform="matrix(1 0 0 -1 1420.72 73)" fill="#FFFB8D"/>
<circle cx="5" cy="5" r="5" transform="matrix(1 0 0 -1 1316.51 411)" fill="#FFFB8D"/>
<circle cx="5" cy="5" r="5" transform="matrix(1 0 0 -1 1331.51 411)" fill="#FFFB8D"/>
<circle cx="5" cy="5" r="5" transform="matrix(1 0 0 -1 1346.51 411)" fill="#FFFB8D"/>
<circle cx="5" cy="5" r="5" transform="matrix(1 0 0 -1 1316.51 396)" fill="#FFFB8D"/>
<circle cx="5" cy="5" r="5" transform="matrix(1 0 0 -1 1331.51 396)" fill="#FFFB8D"/>
<circle cx="5" cy="5" r="5" transform="matrix(1 0 0 -1 1346.51 396)" fill="#FFFB8D"/>
<circle cx="5" cy="5" r="5" transform="matrix(1 0 0 -1 1316.51 381)" fill="#FFFB8D"/>
<circle cx="5" cy="5" r="5" transform="matrix(1 0 0 -1 1331.51 381)" fill="#FFFB8D"/>
<circle cx="5" cy="5" r="5" transform="matrix(1 0 0 -1 1346.51 381)" fill="#FFFB8D"/>
<circle cx="5" cy="5" r="5" transform="matrix(1 0 0 -1 1316.51 366)" fill="#FFFB8D"/>
<circle cx="5" cy="5" r="5" transform="matrix(1 0 0 -1 1331.51 366)" fill="#FFFB8D"/>
<circle cx="5" cy="5" r="5" transform="matrix(1 0 0 -1 1346.51 366)" fill="#FFFB8D"/>
<circle cx="5" cy="5" r="5" transform="matrix(1 0 0 -1 1370.34 409)" fill="#FFFB8D"/>
<circle cx="5" cy="5" r="5" transform="matrix(1 0 0 -1 1385.34 409)" fill="#FFFB8D"/>
<circle cx="5" cy="5" r="5" transform="matrix(1 0 0 -1 1400.34 409)" fill="#FFFB8D"/>
<circle cx="5" cy="5" r="5" transform="matrix(1 0 0 -1 1370.34 394)" fill="#FFFB8D"/>
<circle cx="5" cy="5" r="5" transform="matrix(1 0 0 -1 1385.34 394)" fill="#FFFB8D"/>
<circle cx="5" cy="5" r="5" transform="matrix(1 0 0 -1 1400.34 394)" fill="#FFFB8D"/>
<circle cx="5" cy="5" r="5" transform="matrix(1 0 0 -1 1370.34 379)" fill="#FFFB8D"/>
<circle cx="5" cy="5" r="5" transform="matrix(1 0 0 -1 1385.34 379)" fill="#FFFB8D"/>
<circle cx="5" cy="5" r="5" transform="matrix(1 0 0 -1 1400.34 379)" fill="#FFFB8D"/>
<circle cx="5" cy="5" r="5" transform="matrix(1 0 0 -1 1370.34 364)" fill="#FFFB8D"/>
<circle cx="5" cy="5" r="5" transform="matrix(1 0 0 -1 1385.34 364)" fill="#FFFB8D"/>
<circle cx="5" cy="5" r="5" transform="matrix(1 0 0 -1 1400.34 364)" fill="#FFFB8D"/>
<circle cx="5" cy="5" r="5" transform="matrix(1 0 0 -1 1325.2 379)" fill="#FFFB8D"/>
<circle cx="5" cy="5" r="5" transform="matrix(1 0 0 -1 1340.2 379)" fill="#FFFB8D"/>
<circle cx="5" cy="5" r="5" transform="matrix(1 0 0 -1 1355.2 379)" fill="#FFFB8D"/>
<circle cx="5" cy="5" r="5" transform="matrix(1 0 0 -1 1325.2 364)" fill="#FFFB8D"/>
<circle cx="5" cy="5" r="5" transform="matrix(1 0 0 -1 1340.2 364)" fill="#FFFB8D"/>
<circle cx="5" cy="5" r="5" transform="matrix(1 0 0 -1 1355.2 364)" fill="#FFFB8D"/>
<circle cx="5" cy="5" r="5" transform="matrix(1 0 0 -1 1325.2 349)" fill="#FFFB8D"/>
<circle cx="5" cy="5" r="5" transform="matrix(1 0 0 -1 1340.2 349)" fill="#FFFB8D"/>
<circle cx="5" cy="5" r="5" transform="matrix(1 0 0 -1 1355.2 349)" fill="#FFFB8D"/>
<circle cx="5" cy="5" r="5" transform="matrix(1 0 0 -1 1325.2 334)" fill="#FFFB8D"/>
<circle cx="5" cy="5" r="5" transform="matrix(1 0 0 -1 1340.2 334)" fill="#FFFB8D"/>
<circle cx="5" cy="5" r="5" transform="matrix(1 0 0 -1 1355.2 334)" fill="#FFFB8D"/>
<circle cx="5" cy="5" r="5" transform="matrix(-1 0 0 1 180.572 177)" fill="#9EDFFF"/>
<circle cx="5" cy="5" r="5" transform="matrix(-1 0 0 1 165.572 177)" fill="#9EDFFF"/>
<circle cx="5" cy="5" r="5" transform="matrix(-1 0 0 1 150.572 177)" fill="#9EDFFF"/>
<circle cx="5" cy="5" r="5" transform="matrix(-1 0 0 1 180.572 192)" fill="#9EDFFF"/>
<circle cx="5" cy="5" r="5" transform="matrix(-1 0 0 1 165.572 192)" fill="#9EDFFF"/>
<circle cx="5" cy="5" r="5" transform="matrix(-1 0 0 1 150.572 192)" fill="#9EDFFF"/>
<circle cx="5" cy="5" r="5" transform="matrix(-1 0 0 1 180.572 207)" fill="#9EDFFF"/>
<circle cx="5" cy="5" r="5" transform="matrix(-1 0 0 1 165.572 207)" fill="#9EDFFF"/>
<circle cx="5" cy="5" r="5" transform="matrix(-1 0 0 1 150.572 207)" fill="#9EDFFF"/>
<circle cx="5" cy="5" r="5" transform="matrix(-1 0 0 1 180.572 222)" fill="#9EDFFF"/>
<circle cx="5" cy="5" r="5" transform="matrix(-1 0 0 1 165.572 222)" fill="#9EDFFF"/>
<circle cx="5" cy="5" r="5" transform="matrix(-1 0 0 1 150.572 222)" fill="#9EDFFF"/>
<circle cx="5" cy="5" r="5" transform="matrix(-1 0 0 1 244.142 177)" fill="#9EDFFF"/>
<circle cx="5" cy="5" r="5" transform="matrix(-1 0 0 1 229.142 177)" fill="#9EDFFF"/>
<circle cx="5" cy="5" r="5" transform="matrix(-1 0 0 1 214.142 177)" fill="#9EDFFF"/>
<circle cx="5" cy="5" r="5" transform="matrix(-1 0 0 1 244.142 192)" fill="#9EDFFF"/>
<circle cx="5" cy="5" r="5" transform="matrix(-1 0 0 1 229.142 192)" fill="#9EDFFF"/>
<circle cx="5" cy="5" r="5" transform="matrix(-1 0 0 1 214.142 192)" fill="#9EDFFF"/>
<circle cx="5" cy="5" r="5" transform="matrix(-1 0 0 1 244.142 207)" fill="#9EDFFF"/>
<circle cx="5" cy="5" r="5" transform="matrix(-1 0 0 1 229.142 207)" fill="#9EDFFF"/>
<circle cx="5" cy="5" r="5" transform="matrix(-1 0 0 1 214.142 207)" fill="#9EDFFF"/>
<circle cx="5" cy="5" r="5" transform="matrix(-1 0 0 1 244.142 222)" fill="#9EDFFF"/>
<circle cx="5" cy="5" r="5" transform="matrix(-1 0 0 1 229.142 222)" fill="#9EDFFF"/>
<circle cx="5" cy="5" r="5" transform="matrix(-1 0 0 1 214.142 222)" fill="#9EDFFF"/>
<circle cx="5" cy="5" r="5" transform="matrix(-1 0 0 1 226.453 207)" fill="#9EDFFF"/>
<circle cx="5" cy="5" r="5" transform="matrix(-1 0 0 1 211.453 207)" fill="#9EDFFF"/>
<circle cx="5" cy="5" r="5" transform="matrix(-1 0 0 1 196.453 207)" fill="#9EDFFF"/>
<circle cx="5" cy="5" r="5" transform="matrix(-1 0 0 1 226.453 222)" fill="#9EDFFF"/>
<circle cx="5" cy="5" r="5" transform="matrix(-1 0 0 1 211.453 222)" fill="#9EDFFF"/>
<circle cx="5" cy="5" r="5" transform="matrix(-1 0 0 1 196.453 222)" fill="#9EDFFF"/>
<circle cx="5" cy="5" r="5" transform="matrix(-1 0 0 1 226.453 237)" fill="#9EDFFF"/>
<circle cx="5" cy="5" r="5" transform="matrix(-1 0 0 1 211.453 237)" fill="#9EDFFF"/>
<circle cx="5" cy="5" r="5" transform="matrix(-1 0 0 1 196.453 237)" fill="#9EDFFF"/>
<circle cx="5" cy="5" r="5" transform="matrix(-1 0 0 1 226.453 252)" fill="#9EDFFF"/>
<circle cx="5" cy="5" r="5" transform="matrix(-1 0 0 1 211.453 252)" fill="#9EDFFF"/>
<circle cx="5" cy="5" r="5" transform="matrix(-1 0 0 1 196.453 252)" fill="#9EDFFF"/>
<circle cx="5" cy="5" r="5" transform="matrix(-1 0 0 1 49.2809 341)" fill="#9EDFFF"/>
<circle cx="5" cy="5" r="5" transform="matrix(-1 0 0 1 34.2809 341)" fill="#9EDFFF"/>
<circle cx="5" cy="5" r="5" transform="matrix(-1 0 0 1 19.2809 341)" fill="#9EDFFF"/>
<circle cx="5" cy="5" r="5" transform="matrix(-1 0 0 1 49.2809 356)" fill="#9EDFFF"/>
<circle cx="5" cy="5" r="5" transform="matrix(-1 0 0 1 34.2809 356)" fill="#9EDFFF"/>
<circle cx="5" cy="5" r="5" transform="matrix(-1 0 0 1 19.2809 356)" fill="#9EDFFF"/>
<circle cx="5" cy="5" r="5" transform="matrix(-1 0 0 1 49.2809 371)" fill="#9EDFFF"/>
<circle cx="5" cy="5" r="5" transform="matrix(-1 0 0 1 34.2809 371)" fill="#9EDFFF"/>
<circle cx="5" cy="5" r="5" transform="matrix(-1 0 0 1 19.2809 371)" fill="#9EDFFF"/>
<circle cx="5" cy="5" r="5" transform="matrix(-1 0 0 1 49.2809 386)" fill="#9EDFFF"/>
<circle cx="5" cy="5" r="5" transform="matrix(-1 0 0 1 34.2809 386)" fill="#9EDFFF"/>
<circle cx="5" cy="5" r="5" transform="matrix(-1 0 0 1 19.2809 386)" fill="#9EDFFF"/>
<circle cx="5" cy="5" r="5" transform="matrix(-1 0 0 1 112.851 341)" fill="#9EDFFF"/>
<circle cx="5" cy="5" r="5" transform="matrix(-1 0 0 1 97.8511 341)" fill="#9EDFFF"/>
<circle cx="5" cy="5" r="5" transform="matrix(-1 0 0 1 82.8511 341)" fill="#9EDFFF"/>
<circle cx="5" cy="5" r="5" transform="matrix(-1 0 0 1 112.851 356)" fill="#9EDFFF"/>
<circle cx="5" cy="5" r="5" transform="matrix(-1 0 0 1 97.8511 356)" fill="#9EDFFF"/>
<circle cx="5" cy="5" r="5" transform="matrix(-1 0 0 1 82.8511 356)" fill="#9EDFFF"/>
<circle cx="5" cy="5" r="5" transform="matrix(-1 0 0 1 112.851 371)" fill="#9EDFFF"/>
<circle cx="5" cy="5" r="5" transform="matrix(-1 0 0 1 97.8511 371)" fill="#9EDFFF"/>
<circle cx="5" cy="5" r="5" transform="matrix(-1 0 0 1 82.8511 371)" fill="#9EDFFF"/>
<circle cx="5" cy="5" r="5" transform="matrix(-1 0 0 1 112.851 386)" fill="#9EDFFF"/>
<circle cx="5" cy="5" r="5" transform="matrix(-1 0 0 1 97.8511 386)" fill="#9EDFFF"/>
<circle cx="5" cy="5" r="5" transform="matrix(-1 0 0 1 82.8511 386)" fill="#9EDFFF"/>
<circle cx="5" cy="5" r="5" transform="matrix(-1 0 0 1 95.1619 371)" fill="#9EDFFF"/>
<circle cx="5" cy="5" r="5" transform="matrix(-1 0 0 1 80.1619 371)" fill="#9EDFFF"/>
<circle cx="5" cy="5" r="5" transform="matrix(-1 0 0 1 65.1619 371)" fill="#9EDFFF"/>
<circle cx="5" cy="5" r="5" transform="matrix(-1 0 0 1 95.1619 386)" fill="#9EDFFF"/>
<circle cx="5" cy="5" r="5" transform="matrix(-1 0 0 1 80.1619 386)" fill="#9EDFFF"/>
<circle cx="5" cy="5" r="5" transform="matrix(-1 0 0 1 65.1619 386)" fill="#9EDFFF"/>
<circle cx="5" cy="5" r="5" transform="matrix(-1 0 0 1 95.1619 401)" fill="#9EDFFF"/>
<circle cx="5" cy="5" r="5" transform="matrix(-1 0 0 1 80.1619 401)" fill="#9EDFFF"/>
<circle cx="5" cy="5" r="5" transform="matrix(-1 0 0 1 65.1619 401)" fill="#9EDFFF"/>
<circle cx="5" cy="5" r="5" transform="matrix(-1 0 0 1 95.1619 416)" fill="#9EDFFF"/>
<circle cx="5" cy="5" r="5" transform="matrix(-1 0 0 1 80.1619 416)" fill="#9EDFFF"/>
<circle cx="5" cy="5" r="5" transform="matrix(-1 0 0 1 65.1619 416)" fill="#9EDFFF"/>
</svg>
