<svg width="2402" height="411" viewBox="0 0 2402 411" fill="none" xmlns="http://www.w3.org/2000/svg">
<circle cx="5" cy="5" r="5" transform="matrix(-1 0 0 1 1198.89 318)" fill="#FFFB8D"/>
<circle cx="5" cy="5" r="5" transform="matrix(-1 0 0 1 1183.89 318)" fill="#FFFB8D"/>
<circle cx="5" cy="5" r="5" transform="matrix(-1 0 0 1 1168.89 318)" fill="#FFFB8D"/>
<circle cx="5" cy="5" r="5" transform="matrix(-1 0 0 1 1153.89 318)" fill="#FFFB8D"/>
<circle cx="5" cy="5" r="5" transform="matrix(-1 0 0 1 1138.89 318)" fill="#FFFB8D"/>
<circle cx="5" cy="5" r="5" transform="matrix(-1 0 0 1 1198.89 333)" fill="#FFFB8D"/>
<circle cx="5" cy="5" r="5" transform="matrix(-1 0 0 1 1183.89 333)" fill="#FFFB8D"/>
<circle cx="5" cy="5" r="5" transform="matrix(-1 0 0 1 1168.89 333)" fill="#FFFB8D"/>
<circle cx="5" cy="5" r="5" transform="matrix(-1 0 0 1 1153.89 333)" fill="#FFFB8D"/>
<circle cx="5" cy="5" r="5" transform="matrix(-1 0 0 1 1138.89 333)" fill="#FFFB8D"/>
<circle cx="5" cy="5" r="5" transform="matrix(-1 0 0 1 1198.89 348)" fill="#FFFB8D"/>
<circle cx="5" cy="5" r="5" transform="matrix(-1 0 0 1 1183.89 348)" fill="#FFFB8D"/>
<circle cx="5" cy="5" r="5" transform="matrix(-1 0 0 1 1285.92 318)" fill="#FFFB8D"/>
<circle cx="5" cy="5" r="5" transform="matrix(-1 0 0 1 1270.92 318)" fill="#FFFB8D"/>
<circle cx="5" cy="5" r="5" transform="matrix(-1 0 0 1 1255.92 318)" fill="#FFFB8D"/>
<circle cx="5" cy="5" r="5" transform="matrix(-1 0 0 1 1240.92 318)" fill="#FFFB8D"/>
<circle cx="5" cy="5" r="5" transform="matrix(-1 0 0 1 1225.92 318)" fill="#FFFB8D"/>
<circle cx="5" cy="5" r="5" transform="matrix(-1 0 0 1 1285.92 333)" fill="#FFFB8D"/>
<circle cx="5" cy="5" r="5" transform="matrix(-1 0 0 1 1270.92 333)" fill="#FFFB8D"/>
<circle cx="5" cy="5" r="5" transform="matrix(-1 0 0 1 1255.92 333)" fill="#FFFB8D"/>
<circle cx="5" cy="5" r="5" transform="matrix(-1 0 0 1 1240.92 333)" fill="#FFFB8D"/>
<circle cx="5" cy="5" r="5" transform="matrix(-1 0 0 1 1225.92 333)" fill="#FFFB8D"/>
<circle cx="5" cy="5" r="5" transform="matrix(-1 0 0 1 1285.92 348)" fill="#FFFB8D"/>
<circle cx="5" cy="5" r="5" transform="matrix(-1 0 0 1 1270.92 348)" fill="#FFFB8D"/>
<circle cx="5" cy="5" r="5" transform="matrix(-1 0 0 1 1271.42 350)" fill="#FFFB8D"/>
<circle cx="5" cy="5" r="5" transform="matrix(-1 0 0 1 1256.42 350)" fill="#FFFB8D"/>
<circle cx="5" cy="5" r="5" transform="matrix(-1 0 0 1 1241.42 350)" fill="#FFFB8D"/>
<circle cx="5" cy="5" r="5" transform="matrix(-1 0 0 1 1226.42 350)" fill="#FFFB8D"/>
<circle cx="5" cy="5" r="5" transform="matrix(-1 0 0 1 1211.42 350)" fill="#FFFB8D"/>
<circle cx="5" cy="5" r="5" transform="matrix(-1 0 0 1 1271.42 365)" fill="#FFFB8D"/>
<circle cx="5" cy="5" r="5" transform="matrix(-1 0 0 1 1256.42 365)" fill="#FFFB8D"/>
<circle cx="5" cy="5" r="5" transform="matrix(-1 0 0 1 1241.42 365)" fill="#FFFB8D"/>
<circle cx="5" cy="5" r="5" transform="matrix(-1 0 0 1 1226.42 365)" fill="#FFFB8D"/>
<circle cx="5" cy="5" r="5" transform="matrix(-1 0 0 1 1211.42 365)" fill="#FFFB8D"/>
<circle cx="5" cy="5" r="5" transform="matrix(-1 0 0 1 1271.42 380)" fill="#FFFB8D"/>
<circle cx="5" cy="5" r="5" transform="matrix(-1 0 0 1 1256.42 380)" fill="#FFFB8D"/>
<circle cx="5" cy="5" r="5" transform="matrix(-1 0 0 1 631.203 236)" fill="#9EDFFF"/>
<circle cx="5" cy="5" r="5" transform="matrix(-1 0 0 1 616.203 236)" fill="#9EDFFF"/>
<circle cx="5" cy="5" r="5" transform="matrix(-1 0 0 1 601.203 236)" fill="#9EDFFF"/>
<circle cx="5" cy="5" r="5" transform="matrix(-1 0 0 1 586.203 236)" fill="#9EDFFF"/>
<circle cx="5" cy="5" r="5" transform="matrix(-1 0 0 1 571.203 236)" fill="#9EDFFF"/>
<circle cx="5" cy="5" r="5" transform="matrix(-1 0 0 1 631.203 251)" fill="#9EDFFF"/>
<circle cx="5" cy="5" r="5" transform="matrix(-1 0 0 1 616.203 251)" fill="#9EDFFF"/>
<circle cx="5" cy="5" r="5" transform="matrix(-1 0 0 1 601.203 251)" fill="#9EDFFF"/>
<circle cx="5" cy="5" r="5" transform="matrix(-1 0 0 1 586.203 251)" fill="#9EDFFF"/>
<circle cx="5" cy="5" r="5" transform="matrix(-1 0 0 1 571.203 251)" fill="#9EDFFF"/>
<circle cx="5" cy="5" r="5" transform="matrix(-1 0 0 1 631.203 266)" fill="#9EDFFF"/>
<circle cx="5" cy="5" r="5" transform="matrix(-1 0 0 1 616.203 266)" fill="#9EDFFF"/>
<circle cx="5" cy="5" r="5" transform="matrix(-1 0 0 1 737.241 236)" fill="#9EDFFF"/>
<circle cx="5" cy="5" r="5" transform="matrix(-1 0 0 1 722.241 236)" fill="#9EDFFF"/>
<circle cx="5" cy="5" r="5" transform="matrix(-1 0 0 1 707.241 236)" fill="#9EDFFF"/>
<circle cx="5" cy="5" r="5" transform="matrix(-1 0 0 1 692.241 236)" fill="#9EDFFF"/>
<circle cx="5" cy="5" r="5" transform="matrix(-1 0 0 1 677.241 236)" fill="#9EDFFF"/>
<circle cx="5" cy="5" r="5" transform="matrix(-1 0 0 1 737.241 251)" fill="#9EDFFF"/>
<circle cx="5" cy="5" r="5" transform="matrix(-1 0 0 1 722.241 251)" fill="#9EDFFF"/>
<circle cx="5" cy="5" r="5" transform="matrix(-1 0 0 1 707.241 251)" fill="#9EDFFF"/>
<circle cx="5" cy="5" r="5" transform="matrix(-1 0 0 1 692.241 251)" fill="#9EDFFF"/>
<circle cx="5" cy="5" r="5" transform="matrix(-1 0 0 1 677.241 251)" fill="#9EDFFF"/>
<circle cx="5" cy="5" r="5" transform="matrix(-1 0 0 1 737.241 266)" fill="#9EDFFF"/>
<circle cx="5" cy="5" r="5" transform="matrix(-1 0 0 1 722.241 266)" fill="#9EDFFF"/>
<circle cx="5" cy="5" r="5" transform="matrix(-1 0 0 1 707.735 266)" fill="#9EDFFF"/>
<circle cx="5" cy="5" r="5" transform="matrix(-1 0 0 1 692.735 266)" fill="#9EDFFF"/>
<circle cx="5" cy="5" r="5" transform="matrix(-1 0 0 1 677.735 266)" fill="#9EDFFF"/>
<circle cx="5" cy="5" r="5" transform="matrix(-1 0 0 1 662.735 266)" fill="#9EDFFF"/>
<circle cx="5" cy="5" r="5" transform="matrix(-1 0 0 1 647.735 266)" fill="#9EDFFF"/>
<circle cx="5" cy="5" r="5" transform="matrix(-1 0 0 1 707.735 281)" fill="#9EDFFF"/>
<circle cx="5" cy="5" r="5" transform="matrix(-1 0 0 1 692.735 281)" fill="#9EDFFF"/>
<circle cx="5" cy="5" r="5" transform="matrix(-1 0 0 1 677.735 281)" fill="#9EDFFF"/>
<circle cx="5" cy="5" r="5" transform="matrix(-1 0 0 1 662.735 281)" fill="#9EDFFF"/>
<circle cx="5" cy="5" r="5" transform="matrix(-1 0 0 1 647.735 281)" fill="#9EDFFF"/>
<circle cx="5" cy="5" r="5" transform="matrix(-1 0 0 1 707.735 296)" fill="#9EDFFF"/>
<circle cx="5" cy="5" r="5" transform="matrix(-1 0 0 1 692.735 296)" fill="#9EDFFF"/>
<circle cx="5" cy="5" r="5" transform="matrix(-1 0 0 1 1865.21 293)" fill="#FFFB8D"/>
<circle cx="5" cy="5" r="5" transform="matrix(-1 0 0 1 1850.21 293)" fill="#FFFB8D"/>
<circle cx="5" cy="5" r="5" transform="matrix(-1 0 0 1 1835.21 293)" fill="#FFFB8D"/>
<circle cx="5" cy="5" r="5" transform="matrix(-1 0 0 1 1820.21 293)" fill="#FFFB8D"/>
<circle cx="5" cy="5" r="5" transform="matrix(-1 0 0 1 1805.21 293)" fill="#FFFB8D"/>
<circle cx="5" cy="5" r="5" transform="matrix(-1 0 0 1 1865.21 308)" fill="#FFFB8D"/>
<circle cx="5" cy="5" r="5" transform="matrix(-1 0 0 1 1850.21 308)" fill="#FFFB8D"/>
<circle cx="5" cy="5" r="5" transform="matrix(-1 0 0 1 1835.21 308)" fill="#FFFB8D"/>
<circle cx="5" cy="5" r="5" transform="matrix(-1 0 0 1 1820.21 308)" fill="#FFFB8D"/>
<circle cx="5" cy="5" r="5" transform="matrix(-1 0 0 1 1805.21 308)" fill="#FFFB8D"/>
<circle cx="5" cy="5" r="5" transform="matrix(-1 0 0 1 1865.21 323)" fill="#FFFB8D"/>
<circle cx="5" cy="5" r="5" transform="matrix(-1 0 0 1 1850.21 323)" fill="#FFFB8D"/>
<circle cx="5" cy="5" r="5" transform="matrix(-1 0 0 1 1989 0)" fill="#FFFB8D"/>
<circle cx="5" cy="5" r="5" transform="matrix(-1 0 0 1 1974 0)" fill="#FFFB8D"/>
<circle cx="5" cy="5" r="5" transform="matrix(-1 0 0 1 1959 0)" fill="#FFFB8D"/>
<circle cx="5" cy="5" r="5" transform="matrix(-1 0 0 1 1944 0)" fill="#FFFB8D"/>
<circle cx="5" cy="5" r="5" transform="matrix(-1 0 0 1 1929 0)" fill="#FFFB8D"/>
<circle cx="5" cy="5" r="5" transform="matrix(-1 0 0 1 1989 15)" fill="#FFFB8D"/>
<circle cx="5" cy="5" r="5" transform="matrix(-1 0 0 1 1974 15)" fill="#FFFB8D"/>
<circle cx="5" cy="5" r="5" transform="matrix(-1 0 0 1 1959 15)" fill="#FFFB8D"/>
<circle cx="5" cy="5" r="5" transform="matrix(-1 0 0 1 1944 15)" fill="#FFFB8D"/>
<circle cx="5" cy="5" r="5" transform="matrix(-1 0 0 1 1929 15)" fill="#FFFB8D"/>
<circle cx="5" cy="5" r="5" transform="matrix(-1 0 0 1 1989 30)" fill="#FFFB8D"/>
<circle cx="5" cy="5" r="5" transform="matrix(-1 0 0 1 1974 30)" fill="#FFFB8D"/>
<circle cx="5" cy="5" r="5" transform="matrix(-1 0 0 1 1899.2 2)" fill="#FFFB8D"/>
<circle cx="5" cy="5" r="5" transform="matrix(-1 0 0 1 1884.2 2)" fill="#FFFB8D"/>
<circle cx="5" cy="5" r="5" transform="matrix(-1 0 0 1 1869.2 2)" fill="#FFFB8D"/>
<circle cx="5" cy="5" r="5" transform="matrix(-1 0 0 1 1854.2 2)" fill="#FFFB8D"/>
<circle cx="5" cy="5" r="5" transform="matrix(-1 0 0 1 1839.2 2)" fill="#FFFB8D"/>
<circle cx="5" cy="5" r="5" transform="matrix(-1 0 0 1 1899.2 17)" fill="#FFFB8D"/>
<circle cx="5" cy="5" r="5" transform="matrix(-1 0 0 1 1884.2 17)" fill="#FFFB8D"/>
<circle cx="5" cy="5" r="5" transform="matrix(-1 0 0 1 1869.2 17)" fill="#FFFB8D"/>
<circle cx="5" cy="5" r="5" transform="matrix(-1 0 0 1 1854.2 17)" fill="#FFFB8D"/>
<circle cx="5" cy="5" r="5" transform="matrix(-1 0 0 1 1839.2 17)" fill="#FFFB8D"/>
<circle cx="5" cy="5" r="5" transform="matrix(-1 0 0 1 1899.2 32)" fill="#FFFB8D"/>
<circle cx="5" cy="5" r="5" transform="matrix(-1 0 0 1 1884.2 32)" fill="#FFFB8D"/>
<circle cx="5" cy="5" r="5" transform="matrix(-1 0 0 1 1974.49 32)" fill="#FFFB8D"/>
<circle cx="5" cy="5" r="5" transform="matrix(-1 0 0 1 1959.49 32)" fill="#FFFB8D"/>
<circle cx="5" cy="5" r="5" transform="matrix(-1 0 0 1 1944.49 32)" fill="#FFFB8D"/>
<circle cx="5" cy="5" r="5" transform="matrix(-1 0 0 1 1929.49 32)" fill="#FFFB8D"/>
<circle cx="5" cy="5" r="5" transform="matrix(-1 0 0 1 1914.49 32)" fill="#FFFB8D"/>
<circle cx="5" cy="5" r="5" transform="matrix(-1 0 0 1 1974.49 47)" fill="#FFFB8D"/>
<circle cx="5" cy="5" r="5" transform="matrix(-1 0 0 1 1959.49 47)" fill="#FFFB8D"/>
<circle cx="5" cy="5" r="5" transform="matrix(-1 0 0 1 1944.49 47)" fill="#FFFB8D"/>
<circle cx="5" cy="5" r="5" transform="matrix(-1 0 0 1 1929.49 47)" fill="#FFFB8D"/>
<circle cx="5" cy="5" r="5" transform="matrix(-1 0 0 1 1914.49 47)" fill="#FFFB8D"/>
<circle cx="5" cy="5" r="5" transform="matrix(-1 0 0 1 1974.49 62)" fill="#FFFB8D"/>
<circle cx="5" cy="5" r="5" transform="matrix(-1 0 0 1 1959.49 62)" fill="#FFFB8D"/>
<circle cx="5" cy="5" r="5" transform="matrix(1 0 0 -1 2319.79 118)" fill="#FFFB8D"/>
<circle cx="5" cy="5" r="5" transform="matrix(1 0 0 -1 2334.79 118)" fill="#FFFB8D"/>
<circle cx="5" cy="5" r="5" transform="matrix(1 0 0 -1 2349.79 118)" fill="#FFFB8D"/>
<circle cx="5" cy="5" r="5" transform="matrix(1 0 0 -1 2364.79 118)" fill="#FFFB8D"/>
<circle cx="5" cy="5" r="5" transform="matrix(1 0 0 -1 2379.79 118)" fill="#FFFB8D"/>
<circle cx="5" cy="5" r="5" transform="matrix(1 0 0 -1 2319.79 103)" fill="#FFFB8D"/>
<circle cx="5" cy="5" r="5" transform="matrix(1 0 0 -1 2334.79 103)" fill="#FFFB8D"/>
<circle cx="5" cy="5" r="5" transform="matrix(1 0 0 -1 2349.79 103)" fill="#FFFB8D"/>
<circle cx="5" cy="5" r="5" transform="matrix(1 0 0 -1 2364.79 103)" fill="#FFFB8D"/>
<circle cx="5" cy="5" r="5" transform="matrix(1 0 0 -1 2379.79 103)" fill="#FFFB8D"/>
<circle cx="5" cy="5" r="5" transform="matrix(1 0 0 -1 2319.79 88)" fill="#FFFB8D"/>
<circle cx="5" cy="5" r="5" transform="matrix(1 0 0 -1 2334.79 88)" fill="#FFFB8D"/>
<circle cx="5" cy="5" r="5" transform="matrix(1 0 0 -1 2196 411)" fill="#FFFB8D"/>
<circle cx="5" cy="5" r="5" transform="matrix(1 0 0 -1 2211 411)" fill="#FFFB8D"/>
<circle cx="5" cy="5" r="5" transform="matrix(1 0 0 -1 2226 411)" fill="#FFFB8D"/>
<circle cx="5" cy="5" r="5" transform="matrix(1 0 0 -1 2241 411)" fill="#FFFB8D"/>
<circle cx="5" cy="5" r="5" transform="matrix(1 0 0 -1 2256 411)" fill="#FFFB8D"/>
<circle cx="5" cy="5" r="5" transform="matrix(1 0 0 -1 2196 396)" fill="#FFFB8D"/>
<circle cx="5" cy="5" r="5" transform="matrix(1 0 0 -1 2211 396)" fill="#FFFB8D"/>
<circle cx="5" cy="5" r="5" transform="matrix(1 0 0 -1 2226 396)" fill="#FFFB8D"/>
<circle cx="5" cy="5" r="5" transform="matrix(1 0 0 -1 2241 396)" fill="#FFFB8D"/>
<circle cx="5" cy="5" r="5" transform="matrix(1 0 0 -1 2256 396)" fill="#FFFB8D"/>
<circle cx="5" cy="5" r="5" transform="matrix(1 0 0 -1 2196 381)" fill="#FFFB8D"/>
<circle cx="5" cy="5" r="5" transform="matrix(1 0 0 -1 2211 381)" fill="#FFFB8D"/>
<circle cx="5" cy="5" r="5" transform="matrix(1 0 0 -1 2285.8 409)" fill="#FFFB8D"/>
<circle cx="5" cy="5" r="5" transform="matrix(1 0 0 -1 2300.8 409)" fill="#FFFB8D"/>
<circle cx="5" cy="5" r="5" transform="matrix(1 0 0 -1 2315.8 409)" fill="#FFFB8D"/>
<circle cx="5" cy="5" r="5" transform="matrix(1 0 0 -1 2330.8 409)" fill="#FFFB8D"/>
<circle cx="5" cy="5" r="5" transform="matrix(1 0 0 -1 2345.8 409)" fill="#FFFB8D"/>
<circle cx="5" cy="5" r="5" transform="matrix(1 0 0 -1 2285.8 394)" fill="#FFFB8D"/>
<circle cx="5" cy="5" r="5" transform="matrix(1 0 0 -1 2300.8 394)" fill="#FFFB8D"/>
<circle cx="5" cy="5" r="5" transform="matrix(1 0 0 -1 2315.8 394)" fill="#FFFB8D"/>
<circle cx="5" cy="5" r="5" transform="matrix(1 0 0 -1 2330.8 394)" fill="#FFFB8D"/>
<circle cx="5" cy="5" r="5" transform="matrix(1 0 0 -1 2345.8 394)" fill="#FFFB8D"/>
<circle cx="5" cy="5" r="5" transform="matrix(1 0 0 -1 2285.8 379)" fill="#FFFB8D"/>
<circle cx="5" cy="5" r="5" transform="matrix(1 0 0 -1 2300.8 379)" fill="#FFFB8D"/>
<circle cx="5" cy="5" r="5" transform="matrix(1 0 0 -1 2210.51 379)" fill="#FFFB8D"/>
<circle cx="5" cy="5" r="5" transform="matrix(1 0 0 -1 2225.51 379)" fill="#FFFB8D"/>
<circle cx="5" cy="5" r="5" transform="matrix(1 0 0 -1 2240.51 379)" fill="#FFFB8D"/>
<circle cx="5" cy="5" r="5" transform="matrix(1 0 0 -1 2255.51 379)" fill="#FFFB8D"/>
<circle cx="5" cy="5" r="5" transform="matrix(1 0 0 -1 2270.51 379)" fill="#FFFB8D"/>
<circle cx="5" cy="5" r="5" transform="matrix(1 0 0 -1 2210.51 364)" fill="#FFFB8D"/>
<circle cx="5" cy="5" r="5" transform="matrix(1 0 0 -1 2225.51 364)" fill="#FFFB8D"/>
<circle cx="5" cy="5" r="5" transform="matrix(1 0 0 -1 2240.51 364)" fill="#FFFB8D"/>
<circle cx="5" cy="5" r="5" transform="matrix(1 0 0 -1 2255.51 364)" fill="#FFFB8D"/>
<circle cx="5" cy="5" r="5" transform="matrix(1 0 0 -1 2270.51 364)" fill="#FFFB8D"/>
<circle cx="5" cy="5" r="5" transform="matrix(1 0 0 -1 2210.51 349)" fill="#FFFB8D"/>
<circle cx="5" cy="5" r="5" transform="matrix(1 0 0 -1 2225.51 349)" fill="#FFFB8D"/>
<circle cx="5" cy="5" r="5" transform="matrix(-1 0 0 1 301.203 177)" fill="#9EDFFF"/>
<circle cx="5" cy="5" r="5" transform="matrix(-1 0 0 1 286.203 177)" fill="#9EDFFF"/>
<circle cx="5" cy="5" r="5" transform="matrix(-1 0 0 1 271.203 177)" fill="#9EDFFF"/>
<circle cx="5" cy="5" r="5" transform="matrix(-1 0 0 1 256.203 177)" fill="#9EDFFF"/>
<circle cx="5" cy="5" r="5" transform="matrix(-1 0 0 1 241.203 177)" fill="#9EDFFF"/>
<circle cx="5" cy="5" r="5" transform="matrix(-1 0 0 1 301.203 192)" fill="#9EDFFF"/>
<circle cx="5" cy="5" r="5" transform="matrix(-1 0 0 1 286.203 192)" fill="#9EDFFF"/>
<circle cx="5" cy="5" r="5" transform="matrix(-1 0 0 1 271.203 192)" fill="#9EDFFF"/>
<circle cx="5" cy="5" r="5" transform="matrix(-1 0 0 1 256.203 192)" fill="#9EDFFF"/>
<circle cx="5" cy="5" r="5" transform="matrix(-1 0 0 1 241.203 192)" fill="#9EDFFF"/>
<circle cx="5" cy="5" r="5" transform="matrix(-1 0 0 1 301.203 207)" fill="#9EDFFF"/>
<circle cx="5" cy="5" r="5" transform="matrix(-1 0 0 1 286.203 207)" fill="#9EDFFF"/>
<circle cx="5" cy="5" r="5" transform="matrix(-1 0 0 1 407.241 177)" fill="#9EDFFF"/>
<circle cx="5" cy="5" r="5" transform="matrix(-1 0 0 1 392.241 177)" fill="#9EDFFF"/>
<circle cx="5" cy="5" r="5" transform="matrix(-1 0 0 1 377.241 177)" fill="#9EDFFF"/>
<circle cx="5" cy="5" r="5" transform="matrix(-1 0 0 1 362.241 177)" fill="#9EDFFF"/>
<circle cx="5" cy="5" r="5" transform="matrix(-1 0 0 1 347.241 177)" fill="#9EDFFF"/>
<circle cx="5" cy="5" r="5" transform="matrix(-1 0 0 1 407.241 192)" fill="#9EDFFF"/>
<circle cx="5" cy="5" r="5" transform="matrix(-1 0 0 1 392.241 192)" fill="#9EDFFF"/>
<circle cx="5" cy="5" r="5" transform="matrix(-1 0 0 1 377.241 192)" fill="#9EDFFF"/>
<circle cx="5" cy="5" r="5" transform="matrix(-1 0 0 1 362.241 192)" fill="#9EDFFF"/>
<circle cx="5" cy="5" r="5" transform="matrix(-1 0 0 1 347.241 192)" fill="#9EDFFF"/>
<circle cx="5" cy="5" r="5" transform="matrix(-1 0 0 1 407.241 207)" fill="#9EDFFF"/>
<circle cx="5" cy="5" r="5" transform="matrix(-1 0 0 1 392.241 207)" fill="#9EDFFF"/>
<circle cx="5" cy="5" r="5" transform="matrix(-1 0 0 1 377.735 207)" fill="#9EDFFF"/>
<circle cx="5" cy="5" r="5" transform="matrix(-1 0 0 1 362.735 207)" fill="#9EDFFF"/>
<circle cx="5" cy="5" r="5" transform="matrix(-1 0 0 1 347.735 207)" fill="#9EDFFF"/>
<circle cx="5" cy="5" r="5" transform="matrix(-1 0 0 1 332.735 207)" fill="#9EDFFF"/>
<circle cx="5" cy="5" r="5" transform="matrix(-1 0 0 1 317.735 207)" fill="#9EDFFF"/>
<circle cx="5" cy="5" r="5" transform="matrix(-1 0 0 1 377.735 222)" fill="#9EDFFF"/>
<circle cx="5" cy="5" r="5" transform="matrix(-1 0 0 1 362.735 222)" fill="#9EDFFF"/>
<circle cx="5" cy="5" r="5" transform="matrix(-1 0 0 1 347.735 222)" fill="#9EDFFF"/>
<circle cx="5" cy="5" r="5" transform="matrix(-1 0 0 1 332.735 222)" fill="#9EDFFF"/>
<circle cx="5" cy="5" r="5" transform="matrix(-1 0 0 1 317.735 222)" fill="#9EDFFF"/>
<circle cx="5" cy="5" r="5" transform="matrix(-1 0 0 1 377.735 237)" fill="#9EDFFF"/>
<circle cx="5" cy="5" r="5" transform="matrix(-1 0 0 1 362.735 237)" fill="#9EDFFF"/>
<circle cx="5" cy="5" r="5" transform="matrix(-1 0 0 1 82.2029 341)" fill="#9EDFFF"/>
<circle cx="5" cy="5" r="5" transform="matrix(-1 0 0 1 67.2029 341)" fill="#9EDFFF"/>
<circle cx="5" cy="5" r="5" transform="matrix(-1 0 0 1 52.2029 341)" fill="#9EDFFF"/>
<circle cx="5" cy="5" r="5" transform="matrix(-1 0 0 1 37.2029 341)" fill="#9EDFFF"/>
<circle cx="5" cy="5" r="5" transform="matrix(-1 0 0 1 22.2029 341)" fill="#9EDFFF"/>
<circle cx="5" cy="5" r="5" transform="matrix(-1 0 0 1 82.2029 356)" fill="#9EDFFF"/>
<circle cx="5" cy="5" r="5" transform="matrix(-1 0 0 1 67.2029 356)" fill="#9EDFFF"/>
<circle cx="5" cy="5" r="5" transform="matrix(-1 0 0 1 52.2029 356)" fill="#9EDFFF"/>
<circle cx="5" cy="5" r="5" transform="matrix(-1 0 0 1 37.2029 356)" fill="#9EDFFF"/>
<circle cx="5" cy="5" r="5" transform="matrix(-1 0 0 1 22.2029 356)" fill="#9EDFFF"/>
<circle cx="5" cy="5" r="5" transform="matrix(-1 0 0 1 82.2029 371)" fill="#9EDFFF"/>
<circle cx="5" cy="5" r="5" transform="matrix(-1 0 0 1 67.2029 371)" fill="#9EDFFF"/>
<circle cx="5" cy="5" r="5" transform="matrix(-1 0 0 1 188.241 341)" fill="#9EDFFF"/>
<circle cx="5" cy="5" r="5" transform="matrix(-1 0 0 1 173.241 341)" fill="#9EDFFF"/>
<circle cx="5" cy="5" r="5" transform="matrix(-1 0 0 1 158.241 341)" fill="#9EDFFF"/>
<circle cx="5" cy="5" r="5" transform="matrix(-1 0 0 1 143.241 341)" fill="#9EDFFF"/>
<circle cx="5" cy="5" r="5" transform="matrix(-1 0 0 1 128.241 341)" fill="#9EDFFF"/>
<circle cx="5" cy="5" r="5" transform="matrix(-1 0 0 1 188.241 356)" fill="#9EDFFF"/>
<circle cx="5" cy="5" r="5" transform="matrix(-1 0 0 1 173.241 356)" fill="#9EDFFF"/>
<circle cx="5" cy="5" r="5" transform="matrix(-1 0 0 1 158.241 356)" fill="#9EDFFF"/>
<circle cx="5" cy="5" r="5" transform="matrix(-1 0 0 1 143.241 356)" fill="#9EDFFF"/>
<circle cx="5" cy="5" r="5" transform="matrix(-1 0 0 1 128.241 356)" fill="#9EDFFF"/>
<circle cx="5" cy="5" r="5" transform="matrix(-1 0 0 1 188.241 371)" fill="#9EDFFF"/>
<circle cx="5" cy="5" r="5" transform="matrix(-1 0 0 1 173.241 371)" fill="#9EDFFF"/>
<circle cx="5" cy="5" r="5" transform="matrix(-1 0 0 1 158.735 371)" fill="#9EDFFF"/>
<circle cx="5" cy="5" r="5" transform="matrix(-1 0 0 1 143.735 371)" fill="#9EDFFF"/>
<circle cx="5" cy="5" r="5" transform="matrix(-1 0 0 1 128.735 371)" fill="#9EDFFF"/>
<circle cx="5" cy="5" r="5" transform="matrix(-1 0 0 1 113.735 371)" fill="#9EDFFF"/>
<circle cx="5" cy="5" r="5" transform="matrix(-1 0 0 1 98.7347 371)" fill="#9EDFFF"/>
<circle cx="5" cy="5" r="5" transform="matrix(-1 0 0 1 158.735 386)" fill="#9EDFFF"/>
<circle cx="5" cy="5" r="5" transform="matrix(-1 0 0 1 143.735 386)" fill="#9EDFFF"/>
<circle cx="5" cy="5" r="5" transform="matrix(-1 0 0 1 128.735 386)" fill="#9EDFFF"/>
<circle cx="5" cy="5" r="5" transform="matrix(-1 0 0 1 113.735 386)" fill="#9EDFFF"/>
<circle cx="5" cy="5" r="5" transform="matrix(-1 0 0 1 98.7347 386)" fill="#9EDFFF"/>
<circle cx="5" cy="5" r="5" transform="matrix(-1 0 0 1 158.735 401)" fill="#9EDFFF"/>
<circle cx="5" cy="5" r="5" transform="matrix(-1 0 0 1 143.735 401)" fill="#9EDFFF"/>
</svg>
