<svg width="21" height="12" viewBox="0 0 21 12" fill="none" xmlns="http://www.w3.org/2000/svg">
<path d="M1.5 7C5.1 -1 15.9 -1 19.5 7" stroke="black" stroke-width="1.5" stroke-linecap="round" stroke-linejoin="round"/>
<path d="M10.5 11C10.106 11 9.71593 10.9224 9.35195 10.7716C8.98797 10.6209 8.65726 10.3999 8.37868 10.1213C8.1001 9.84274 7.87913 9.51203 7.72836 9.14805C7.5776 8.78407 7.5 8.39397 7.5 8C7.5 7.60603 7.5776 7.21593 7.72836 6.85195C7.87913 6.48797 8.1001 6.15726 8.37868 5.87868C8.65726 5.6001 8.98797 5.37913 9.35195 5.22836C9.71593 5.0776 10.106 5 10.5 5C11.2956 5 12.0587 5.31607 12.6213 5.87868C13.1839 6.44129 13.5 7.20435 13.5 8C13.5 8.79565 13.1839 9.55871 12.6213 10.1213C12.0587 10.6839 11.2956 11 10.5 11Z" stroke="black" stroke-width="1.5" stroke-linecap="round" stroke-linejoin="round"/>
</svg>
