<svg width="61" height="60" viewBox="0 0 61 60" fill="none" xmlns="http://www.w3.org/2000/svg">
<path d="M30.5 5C27.217 5 23.9661 5.64664 20.9329 6.90301C17.8998 8.15938 15.1438 10.0009 12.8223 12.3223C8.13392 17.0107 5.5 23.3696 5.5 30C5.5 41.05 12.675 50.425 22.6 53.75C23.85 53.95 24.25 53.175 24.25 52.5V48.275C17.325 49.775 15.85 44.925 15.85 44.925C14.7 42.025 13.075 41.25 13.075 41.25C10.8 39.7 13.25 39.75 13.25 39.75C15.75 39.925 17.075 42.325 17.075 42.325C19.25 46.125 22.925 45 24.35 44.4C24.575 42.775 25.225 41.675 25.925 41.05C20.375 40.425 14.55 38.275 14.55 28.75C14.55 25.975 15.5 23.75 17.125 21.975C16.875 21.35 16 18.75 17.375 15.375C17.375 15.375 19.475 14.7 24.25 17.925C26.225 17.375 28.375 17.1 30.5 17.1C32.625 17.1 34.775 17.375 36.75 17.925C41.525 14.7 43.625 15.375 43.625 15.375C45 18.75 44.125 21.35 43.875 21.975C45.5 23.75 46.45 25.975 46.45 28.75C46.45 38.3 40.6 40.4 35.025 41.025C35.925 41.8 36.75 43.325 36.75 45.65V52.5C36.75 53.175 37.15 53.975 38.425 53.75C48.35 50.4 55.5 41.05 55.5 30C55.5 26.717 54.8534 23.4661 53.597 20.4329C52.3406 17.3998 50.4991 14.6438 48.1777 12.3223C45.8562 10.0009 43.1002 8.15938 40.0671 6.90301C37.0339 5.64664 33.783 5 30.5 5Z" fill="black"/>
</svg>
