<svg width="41" height="40" viewBox="0 0 41 40" fill="none" xmlns="http://www.w3.org/2000/svg">
<path d="M13.5 3.33325H27.5C32.8334 3.33325 37.1667 7.66659 37.1667 12.9999V26.9999C37.1667 29.5637 36.1483 32.0224 34.3354 33.8353C32.5226 35.6481 30.0638 36.6666 27.5 36.6666H13.5C8.16671 36.6666 3.83337 32.3333 3.83337 26.9999V12.9999C3.83337 10.4362 4.85182 7.9774 6.66468 6.16455C8.47753 4.3517 10.9363 3.33325 13.5 3.33325ZM13.1667 6.66659C11.5754 6.66659 10.0493 7.29873 8.92407 8.42394C7.79885 9.54916 7.16671 11.0753 7.16671 12.6666V27.3333C7.16671 30.6499 9.85004 33.3333 13.1667 33.3333H27.8334C29.4247 33.3333 30.9508 32.7011 32.076 31.5759C33.2012 30.4507 33.8334 28.9245 33.8334 27.3333V12.6666C33.8334 9.34992 31.15 6.66659 27.8334 6.66659H13.1667ZM29.25 9.16658C29.8026 9.16658 30.3325 9.38608 30.7232 9.77678C31.1139 10.1675 31.3334 10.6974 31.3334 11.2499C31.3334 11.8025 31.1139 12.3324 30.7232 12.7231C30.3325 13.1138 29.8026 13.3333 29.25 13.3333C28.6975 13.3333 28.1676 13.1138 27.7769 12.7231C27.3862 12.3324 27.1667 11.8025 27.1667 11.2499C27.1667 10.6974 27.3862 10.1675 27.7769 9.77678C28.1676 9.38608 28.6975 9.16658 29.25 9.16658ZM20.5 11.6666C22.7102 11.6666 24.8298 12.5446 26.3926 14.1074C27.9554 15.6702 28.8334 17.7898 28.8334 19.9999C28.8334 22.2101 27.9554 24.3297 26.3926 25.8925C24.8298 27.4553 22.7102 28.3333 20.5 28.3333C18.2899 28.3333 16.1703 27.4553 14.6075 25.8925C13.0447 24.3297 12.1667 22.2101 12.1667 19.9999C12.1667 17.7898 13.0447 15.6702 14.6075 14.1074C16.1703 12.5446 18.2899 11.6666 20.5 11.6666ZM20.5 14.9999C19.174 14.9999 17.9022 15.5267 16.9645 16.4644C16.0268 17.4021 15.5 18.6738 15.5 19.9999C15.5 21.326 16.0268 22.5978 16.9645 23.5355C17.9022 24.4731 19.174 24.9999 20.5 24.9999C21.8261 24.9999 23.0979 24.4731 24.0356 23.5355C24.9733 22.5978 25.5 21.326 25.5 19.9999C25.5 18.6738 24.9733 17.4021 24.0356 16.4644C23.0979 15.5267 21.8261 14.9999 20.5 14.9999Z" fill="black"/>
</svg>
