<svg width="41" height="40" viewBox="0 0 41 40" fill="none" xmlns="http://www.w3.org/2000/svg">
<path d="M32.1667 5C33.0507 5 33.8986 5.35119 34.5237 5.97631C35.1488 6.60143 35.5 7.44928 35.5 8.33333V31.6667C35.5 32.5507 35.1488 33.3986 34.5237 34.0237C33.8986 34.6488 33.0507 35 32.1667 35H8.83333C7.94928 35 7.10143 34.6488 6.47631 34.0237C5.85119 33.3986 5.5 32.5507 5.5 31.6667V8.33333C5.5 7.44928 5.85119 6.60143 6.47631 5.97631C7.10143 5.35119 7.94928 5 8.83333 5H32.1667ZM31.3333 30.8333V22C31.3333 20.559 30.7609 19.177 29.7419 18.1581C28.723 17.1391 27.341 16.5667 25.9 16.5667C24.4833 16.5667 22.8333 17.4333 22.0333 18.7333V16.8833H17.3833V30.8333H22.0333V22.6167C22.0333 21.3333 23.0667 20.2833 24.35 20.2833C24.9688 20.2833 25.5623 20.5292 25.9999 20.9668C26.4375 21.4043 26.6833 21.9978 26.6833 22.6167V30.8333H31.3333ZM11.9667 14.2667C12.7093 14.2667 13.4215 13.9717 13.9466 13.4466C14.4717 12.9215 14.7667 12.2093 14.7667 11.4667C14.7667 9.91667 13.5167 8.65 11.9667 8.65C11.2196 8.65 10.5032 8.94675 9.97498 9.47498C9.44675 10.0032 9.15 10.7196 9.15 11.4667C9.15 13.0167 10.4167 14.2667 11.9667 14.2667ZM14.2833 30.8333V16.8833H9.66667V30.8333H14.2833Z" fill="black"/>
</svg>
