<svg width="41" height="40" viewBox="0 0 41 40" fill="none" xmlns="http://www.w3.org/2000/svg">
<path d="M11.3333 27.5C15.4754 27.5 18.8333 24.1421 18.8333 20C18.8333 15.8579 15.4754 12.5 11.3333 12.5C7.19118 12.5 3.83331 15.8579 3.83331 20C3.83331 24.1421 7.19118 27.5 11.3333 27.5Z" stroke="black" stroke-width="1.5" stroke-linecap="round" stroke-linejoin="round"/>
<path d="M26.3333 27.5C28.6345 27.5 30.5 24.1421 30.5 20C30.5 15.8579 28.6345 12.5 26.3333 12.5C24.0321 12.5 22.1666 15.8579 22.1666 20C22.1666 24.1421 24.0321 27.5 26.3333 27.5Z" stroke="black" stroke-width="1.5" stroke-linecap="round" stroke-linejoin="round"/>
<path d="M35.5 27.5C36.4205 27.5 37.1666 24.1421 37.1666 20C37.1666 15.8579 36.4205 12.5 35.5 12.5C34.5795 12.5 33.8333 15.8579 33.8333 20C33.8333 24.1421 34.5795 27.5 35.5 27.5Z" stroke="black" stroke-width="1.5" stroke-linecap="round" stroke-linejoin="round"/>
</svg>
